<svg xmlns="http://www.w3.org/2000/svg" xml:space="preserve" id="write" x="0" y="0" enable-background="new 0 0 68 68" version="1.1" viewBox="0 0 68 68">
  <path fill="#54e28e" d="M57.22,25.48v30.61c0,2.41-1.96,4.37-4.38,4.37H37.56c-1.31,0-2.45,0.78-3.07,1.93
			c-0.95,1.77-2.81,2.97-4.95,2.97c-2.14,0-4-1.2-4.95-2.97c-0.62-1.15-1.76-1.93-3.07-1.93H6.24c-2.42,0-4.38-1.96-4.38-4.37v-30.6
			c0-2.42,1.96-4.38,4.38-4.38h46.6C55.26,21.11,57.22,23.07,57.22,25.48z"></path>
  <path fill="#e2e2e0" d="M29.54 42.44v13.58H8.85c-1.49 0-2.7-1.21-2.7-2.71V42.44H29.54zM52.94 42.44v10.87c0 1.5-1.22 2.71-2.71 2.71H29.54V42.44H52.94z"></path>
  <path fill="#efefed" d="M29.54 23.69v28.12H9.27c-1.72 0-3.12-1.4-3.12-3.13V20.04c0-1.73 1.4-3.13 3.12-3.13h13.49C26.5 16.91 29.54 19.95 29.54 23.69zM52.94 20.04v28.64c0 1.73-1.4 3.13-3.13 3.13H29.54V23.69c0-3.74 3.04-6.78 6.78-6.78h13.49C51.54 16.91 52.94 18.31 52.94 20.04z"></path>
  <path fill="#e2e2e0" d="M30.71,19.89c-0.74,1.09-1.17,2.4-1.17,3.81v28.12h1.17V19.89z"></path>
  <g>
    <path fill="#e2e2e0" d="M24.87 23.35H10.82c-.28 0-.5-.22-.5-.5s.22-.5.5-.5h14.05c.28 0 .5.22.5.5S25.15 23.35 24.87 23.35zM24.87 29.1H10.82c-.28 0-.5-.22-.5-.5s.22-.5.5-.5h14.05c.28 0 .5.22.5.5S25.15 29.1 24.87 29.1zM24.87 34.86H10.82c-.28 0-.5-.22-.5-.5s.22-.5.5-.5h14.05c.28 0 .5.22.5.5S25.15 34.86 24.87 34.86zM24.87 40.62H10.82c-.28 0-.5-.22-.5-.5s.22-.5.5-.5h14.05c.28 0 .5.22.5.5S25.15 40.62 24.87 40.62zM18.99 46.37h-8.17c-.28 0-.5-.22-.5-.5s.22-.5.5-.5h8.17c.28 0 .5.22.5.5S19.26 46.37 18.99 46.37z"></path>
  </g>
  <g>
    <path fill="#e2e2e0" d="M48.27 23.35H34.21c-.28 0-.5-.22-.5-.5s.22-.5.5-.5h14.05c.28 0 .5.22.5.5S48.54 23.35 48.27 23.35zM44.65 29.1H34.21c-.28 0-.5-.22-.5-.5s.22-.5.5-.5h10.44c.28 0 .5.22.5.5S44.92 29.1 44.65 29.1zM44.21 34.86h-10c-.28 0-.5-.22-.5-.5s.22-.5.5-.5h10c.28 0 .5.22.5.5S44.49 34.86 44.21 34.86zM48.27 40.62H34.21c-.28 0-.5-.22-.5-.5s.22-.5.5-.5h14.05c.28 0 .5.22.5.5S48.54 40.62 48.27 40.62zM41.91 46.37h-7.7c-.28 0-.5-.22-.5-.5s.22-.5.5-.5h7.7c.28 0 .5.22.5.5S42.18 46.37 41.91 46.37z"></path>
  </g>
  <g>
    <rect width="10.64" height="23.9" x="50.06" y="8.86" fill="#8f90fb" transform="rotate(22.942 55.383 20.813)"></rect>
    <rect width="3.05" height="10.64" x="57.92" y="5.89" fill="#fbe063" transform="rotate(-67.058 59.444 11.21)"></rect>
    <path fill="#495e66" d="M65.72,10.03l-0.78,1.84l-9.79-4.15l0.77-1.83c1.15-2.71,4.27-3.98,6.98-2.83c1.35,0.57,2.34,1.64,2.86,2.9
				C66.26,7.23,66.29,8.68,65.72,10.03z"></path>
    <rect width="3.29" height="20.83" x="53.14" y="11.81" fill="#5b52c5" transform="rotate(22.942 54.784 22.228)"></rect>
    <path fill="#fbe063" d="M55.62,33.89l-6.54,5.79c-1.08,0.96-2.79,0.23-2.86-1.21l-0.4-8.73L55.62,33.89z"></path>
    <path fill="#495e66" d="M46.1,35.84l0.12,2.63c0.07,1.44,1.78,2.17,2.86,1.21l1.97-1.74L46.1,35.84z"></path>
  </g>
</svg>
